HIERARCHY
ROOT hip
{
  OFFSET 0 0 0
  CHANNELS 6 Xposition Yposition Zposition Zrotation Yrotation Xrotation
  JOINT abdomen
  {
    OFFSET 0 20.6881 -0.73152
    CHANNELS 3 Zrotation Xrotation Yrotation
    JOINT chest
    {
      OFFSET 0 11.7043 -0.48768
      CHANNELS 3 Zrotation Xrotation Yrotation
      JOINT neck
      {
        OFFSET 0 22.1894 -2.19456
        CHANNELS 3 Zrotation Xrotation Yrotation
        JOINT head
        {
          OFFSET -0.24384 7.07133 1.2192
          CHANNELS 3 Zrotation Xrotation Yrotation
          JOINT leftEye
          {
            OFFSET 4.14528 8.04674 8.04672
            CHANNELS 3 Zrotation Xrotation Yrotation
            End Site
            {
              OFFSET 1 0 0
            }
          }
          JOINT rightEye
          {
            OFFSET -3.6576 8.04674 8.04672
            CHANNELS 3 Zrotation Xrotation Yrotation
            End Site
            {
              OFFSET 1 0 0
            }
          }
        }
      }
      JOINT rCollar
      {
        OFFSET -2.68224 19.2634 -4.8768
        CHANNELS 3 Zrotation Xrotation Yrotation
        JOINT rShldr
        {
          OFFSET -8.77824 -1.95073 1.46304
          CHANNELS 3 Zrotation Xrotation Yrotation
          JOINT rForeArm
          {
            OFFSET -28.1742 -1.7115 0.48768
            CHANNELS 3 Zrotation Xrotation Yrotation
            JOINT rHand
            {
              OFFSET -22.5879 0.773209 7.07136
              CHANNELS 3 Zrotation Xrotation Yrotation
              JOINT rThumb1
              {
                OFFSET -1.2192 -0.487915 3.41376
                CHANNELS 3 Zrotation Xrotation Yrotation
                JOINT rThumb2
                {
                  OFFSET -3.37035 -0.52449 3.41376
                  CHANNELS 3 Zrotation Xrotation Yrotation
                  End Site
                  {
                    OFFSET -1.78271 -1.18214 1.43049
                  }
                }
              }
              JOINT rIndex1
              {
                OFFSET -7.75947 0.938293 5.60832
                CHANNELS 3 Zrotation Xrotation Yrotation
                JOINT rIndex2
                {
                  OFFSET -2.54057 -0.884171 1.56538
                  CHANNELS 3 Zrotation Xrotation Yrotation
                  End Site
                  {
                    OFFSET -1.62519 -0.234802 1.16502
                  }
                }
              }
              JOINT rMid1
              {
                OFFSET -8.24714 1.18213 3.41376
                CHANNELS 3 Zrotation Xrotation Yrotation
                JOINT rMid2
                {
                  OFFSET -3.10165 -0.590103 1.0647
                  CHANNELS 3 Zrotation Xrotation Yrotation
                  End Site
                  {
                    OFFSET -2.48547 -0.328903 0.83742
                  }
                }
              }
              JOINT rRing1
              {
                OFFSET -8.82822 0.546677 1.51678
                CHANNELS 3 Zrotation Xrotation Yrotation
                JOINT rRing2
                {
                  OFFSET -2.60934 -0.819778 -0.0198488
                  CHANNELS 3 Zrotation Xrotation Yrotation
                  End Site
                  {
                    OFFSET -2.33842 -0.294052 0.168128
                  }
                }
              }
              JOINT rPinky1
              {
                OFFSET -8.27202 -0.0477905 -0.4584
                CHANNELS 3 Zrotation Xrotation Yrotation
                JOINT rPinky2
                {
                  OFFSET -1.82734 -0.647385 -0.700984
                  CHANNELS 3 Zrotation Xrotation Yrotation
                  End Site
                  {
                    OFFSET -1.69225 -0.51767 -0.607171
                  }
                }
              }
            }
          }
        }
      }
      JOINT lCollar
      {
        OFFSET 2.68224 19.2634 -4.8768
        CHANNELS 3 Zrotation Xrotation Yrotation
        JOINT lShldr
        {
          OFFSET 8.77824 -1.95073 1.46304
          CHANNELS 3 Zrotation Xrotation Yrotation
          JOINT lForeArm
          {
            OFFSET 28.1742 -1.7115 0.48768
            CHANNELS 3 Zrotation Xrotation Yrotation
            JOINT lHand
            {
              OFFSET 22.5879 0.773209 7.07136
              CHANNELS 3 Zrotation Xrotation Yrotation
              JOINT lThumb1
              {
                OFFSET 1.2192 -0.487915 3.41376
                CHANNELS 3 Zrotation Xrotation Yrotation
                JOINT lThumb2
                {
                  OFFSET 3.37035 -0.52449 3.41376
                  CHANNELS 3 Zrotation Xrotation Yrotation
                  End Site
                  {
                    OFFSET 1.78271 -1.18214 1.43049
                  }
                }
              }
              JOINT lIndex1
              {
                OFFSET 7.75947 0.938293 5.60832
                CHANNELS 3 Zrotation Xrotation Yrotation
                JOINT lIndex2
                {
                  OFFSET 2.54057 -0.884171 1.56538
                  CHANNELS 3 Zrotation Xrotation Yrotation
                  End Site
                  {
                    OFFSET 1.62519 -0.234802 1.16502
                  }
                }
              }
              JOINT lMid1
              {
                OFFSET 8.24714 1.18213 3.41376
                CHANNELS 3 Zrotation Xrotation Yrotation
                JOINT lMid2
                {
                  OFFSET 3.10165 -0.590103 1.0647
                  CHANNELS 3 Zrotation Xrotation Yrotation
                  End Site
                  {
                    OFFSET 2.48547 -0.328903 0.83742
                  }
                }
              }
              JOINT lRing1
              {
                OFFSET 8.82822 0.546677 1.51678
                CHANNELS 3 Zrotation Xrotation Yrotation
                JOINT lRing2
                {
                  OFFSET 2.60934 -0.819778 -0.0198488
                  CHANNELS 3 Zrotation Xrotation Yrotation
                  End Site
                  {
                    OFFSET 2.33842 -0.294052 0.168128
                  }
                }
              }
              JOINT lPinky1
              {
                OFFSET 8.27202 -0.0477905 -0.4584
                CHANNELS 3 Zrotation Xrotation Yrotation
                JOINT lPinky2
                {
                  OFFSET 1.82734 -0.647385 -0.700984
                  CHANNELS 3 Zrotation Xrotation Yrotation
                  End Site
                  {
                    OFFSET 1.69225 -0.51767 -0.607171
                  }
                }
              }
            }
          }
        }
      }
    }
  }
  JOINT rButtock
  {
    OFFSET -8.77824 4.35084 1.2192
    CHANNELS 3 Zrotation Xrotation Yrotation
    JOINT rThigh
    {
      OFFSET 0 -1.70687 -2.19456
      CHANNELS 3 Zrotation Xrotation Yrotation
      JOINT rShin
      {
        OFFSET 0 -36.8199 0.73152
        CHANNELS 3 Zrotation Xrotation Yrotation
        JOINT rFoot
        {
          OFFSET 0.73152 -45.1104 -5.12064
          CHANNELS 3 Zrotation Xrotation Yrotation
          End Site
          {
            OFFSET -1.1221 -3.69964 12.103
          }
        }
      }
    }
  }
  JOINT lButtock
  {
    OFFSET 8.77824 4.35084 1.2192
    CHANNELS 3 Zrotation Xrotation Yrotation
    JOINT lThigh
    {
      OFFSET 0 -1.70687 -2.19456
      CHANNELS 3 Zrotation Xrotation Yrotation
      JOINT lShin
      {
        OFFSET 0 -36.8199 0.73152
        CHANNELS 3 Zrotation Xrotation Yrotation
        JOINT lFoot
        {
          OFFSET -0.73152 -45.1104 -5.12064
          CHANNELS 3 Zrotation Xrotation Yrotation
          End Site
          {
            OFFSET 1.1221 -3.69964 12.103
          }
        }
      }
    }
  }
}
MOTION
Frames:	5
Frame Time:	0.03333
30.1423 65.4543 24.898999999999997 13.300494 57.17477 13.596596 -13.803817 8.659748 -95.421084 7.767554 2.145047 105.879174 -12.014859 25.747231 -83.074134 36.703408 3.058204 44.132957 -4.034593 0.763364 -21.419613 -25.451152 -1.606993 7.107318 -26.036032 59.355449 29.251501 -46.860487 -9.585451 19.369198 142.506387 20.90061 -179.434418 -176.397617 51.399638 152.526694 -174.349419 -9.528813 90.94679 -80.296172 7.606743 23.793225 -9.872844 4.782264 6.604482 6.295588 9.528008 -5.300324 40.596903 -71.780284 19.952182 -176.517264 -44.62916 153.14694 -12.297943 15.448621 4.227841 18.78596 -11.681534 1.301234 -21.110811 -17.377994 -12.250512 -125.756365 10.524519 -145.359369 166.255626 -65.356049 -166.972236 -127.534778 2.75275 160.457003 12.542917 -15.421112 -96.918303 8.857879 -40.929261 9.775043 168.670914 -6.160911 -86.546665 -97.264467 -63.313904 -74.302855 -84.223012 -79.738687 -34.150888 -3.238135 48.966634 -7.199587 155.901772 -7.501656 -142.12094 79.795209 60.930541 -82.54069 4.797707 -0.526429 4.375959 151.150212 -4.386352 -164.051127 20.666393 -40.071671 21.960623 46.486268 -49.670136 38.203515 -1.947328 3.181831 2.609743 -57.104937 -60.510487 29.299221 81.383859 9.521128 112.755946 113.816764 1.405002 -163.43078 -2.433527 0.308623 3.145351 11.038723 2.29416 -180.0 2.192577 -44.253246 102.758815 -162.363598 65.274023 -107.786019
30.986399999999996 65.2058 25.2442 13.398841 57.387206 13.993716 -14.533321 7.013719 -133.991915 3.433564 6.201299 144.139509 9.695337 24.905725 99.634379 -32.584527 19.045877 -134.440788 -5.45899 1.212748 -25.032944 -19.036213 -1.969352 11.705848 -153.513978 -64.495064 178.814153 -108.6798 -6.304031 -168.697994 149.62674 -4.404123 177.771621 -153.526783 74.519408 135.254794 70.072551 -49.768706 26.306356 -13.48356 -28.326082 -29.278008 -143.598744 0.597465 112.862321 -141.131839 12.675534 112.965032 -123.809812 50.9635 108.352968 -133.257319 37.121525 120.71343 -11.49971 -1.438279 0.19874 19.400582 -6.216564 -1.096683 -154.77287 14.183153 -141.740522 -106.769666 -47.95674 -91.205266 134.305638 47.576171 -136.637124 3.687646 3.116376 -82.775328 136.363228 -73.319828 41.303654 9.894041 -36.413299 9.444585 0.898693 0.130588 -2.895637 -9.36955 -7.799682 6.221019 17.264383 25.872479 -9.873818 -5.127292 -6.112905 -14.999051 82.655273 60.37332 -79.597483 20.220254 60.562281 -13.950341 150.916361 -10.412556 173.097076 -179.798244 64.250597 167.203551 82.979685 -55.592266 86.307962 83.348408 -60.525013 77.293987 -134.74758 66.458763 -34.20629 142.081018 -4.749174 -180.0 22.826788 -69.766744 -116.259595 -119.761795 6.742761 38.008161 -2.609128 1.471334 3.424787 10.303533 3.309853 88.209572 50.465823 -3.151812 88.629163 87.786517 56.681322 158.42607
31.6921 64.92670000000001 25.564700000000002 13.792928 58.302438 14.806723 -16.454003 10.829613 -0.0 4.040023 -10.769728 10.88866 -11.860652 28.254225 -95.77642 37.336332 11.362642 55.071143 -6.698155 1.650714 -27.660057 -14.929747 -1.770234 13.449238 -154.564994 -5.158297 163.736249 -79.46457 -38.510214 -100.16826 154.921963 -4.965439 -174.498817 -89.300884 81.878878 73.84874 -3.641356 0.840754 -1.698813 13.749385 -11.714195 -4.322033 -141.997081 0.442562 113.885386 -169.256575 -41.655145 114.870087 -0.403662 -12.395428 -0.275167 8.199516 0.135822 -3.903243 -11.058595 -8.867436 -1.162424 17.58086 19.703767 0.850555 -150.928298 6.917108 -143.325198 -157.457842 12.114397 -142.803011 -5.92093 -44.567135 5.207225 81.08834 -22.758921 99.088549 88.258174 24.408012 99.710853 -178.681783 -67.537091 -154.430434 2.347396 0.896003 -2.90916 -10.705887 -8.59826 6.494471 147.231514 -7.134082 -121.965625 -5.782366 -12.523945 26.301337 -4.695085 0.645993 0.390358 -137.990594 -73.229108 -114.274502 152.499437 -11.824023 173.955952 -173.292377 71.773543 164.436901 -8.972309 20.455663 -13.948415 110.360019 -35.590042 103.912344 -133.300809 66.098867 -35.186773 141.230083 -2.937009 -3.268834 -41.460931 62.747478 23.054746 90.11847 4.893003 -9.564542 -6.846052 2.044113 -0.0 16.043124 5.093928 -1.136624 -7.241298 39.761659 -78.801935 -23.661129 72.996632 129.370231
32.298100000000005 64.59899999999999 25.8936 14.16501 59.571023 15.310028 -16.566053 10.884618 -0.0 4.20487 -10.653271 10.953038 -7.18475 16.490221 -21.956828 13.623709 -22.824351 -13.646833 -6.983598 1.664063 -26.775026 -12.557074 -1.475165 13.347964 1.396912 -61.917075 -16.641761 117.899547 -52.602455 55.892048 23.578096 -68.17308 -34.784113 157.726917 -27.545688 140.996421 -79.116616 41.050508 40.853532 77.060162 -46.333014 32.634709 -124.514728 20.383282 103.749185 -15.277278 48.469446 8.200532 -111.002884 56.752044 97.998231 -163.352793 -5.562063 139.340642 -78.40667 70.2464 85.60632 -160.996694 -23.709793 171.170468 -24.874603 -38.848084 -15.391697 -139.983984 -1.655932 -130.317269 141.828402 38.589757 -144.910852 18.647688 -4.306391 -78.182587 158.251394 -60.162375 64.183055 9.950347 -34.708368 8.9974 -3.458717 -5.021853 -1.638648 140.381347 -58.581154 -127.75407 155.616908 -22.96468 -125.412032 166.465665 -59.118276 -135.551337 166.925224 -41.556107 -147.126481 158.54089 -7.398261 -142.134728 8.807243 11.898505 -3.027579 -10.888954 30.027541 -13.331358 -5.653512 1.450573 -7.955621 3.065469 0.593488 8.411939 -2.24414 3.538505 3.021098 -56.969703 -61.892575 -149.151669 -79.077951 -13.510358 -6.374224 126.637912 -55.315103 -130.073677 131.697441 69.596392 29.481522 -99.523752 62.167741 15.365978 42.492193 -2.008952 1.927775 -97.609364 30.802222 -7.416042
32.8206 64.2784 26.238899999999997 14.545851 60.600779 15.598062 -16.589098 6.238637 -180.0 -4.217646 5.73847 -169.374667 0.21139 34.286812 -175.511409 10.036325 43.195417 131.48107 -6.622019 1.327098 -22.641089 -10.228572 -1.036875 11.546407 2.633254 -15.532195 -5.116457 -109.922115 13.883845 107.299059 168.000911 -3.478979 -164.848415 -17.723794 63.631777 7.468591 -1.148802 -1.60223 -3.307314 -3.67377 7.367214 6.570401 13.195893 -21.587012 -3.319303 92.76935 -59.533212 50.081204 -162.41427 -6.380954 143.214174 9.650984 -23.667909 -1.649672 -49.102454 65.235213 55.336367 -157.906819 -13.254008 170.358129 -5.611668 -1.455169 6.705756 7.168544 -1.153739 -8.760916 0.229732 0.07114 -1.920789 85.201112 -25.142726 145.082368 -1.909926 -3.249995 134.086128 159.512566 14.557296 -137.754366 176.156231 -10.768726 -88.147947 131.010514 15.946791 -61.150083 166.116961 -43.056803 -126.53938 160.732612 -53.903942 -131.593091 88.339468 62.658562 -82.464422 169.081345 -16.589762 -146.95716 153.777131 -1.469429 178.673645 11.335309 -42.378073 23.241767 -10.375936 26.335118 -14.520362 -74.392111 77.592482 38.867115 -21.062843 4.944419 -10.644777 -11.183696 -68.710553 -45.907701 -65.221956 57.309897 -14.087738 87.332043 66.264925 0.405101 -137.24462 68.159302 -32.795476 -176.841165 79.722322 7.060679 25.921741 38.587527 106.949011 -55.239678 -45.111952 -135.35887
